<?xml version="1.0" ?><svg data-name="Layer 1" id="Layer_1" viewBox="0 0 512 512" xmlns="http://www.w3.org/2000/svg"><title/><path d="M391.11,208.22a3.64,3.64,0,0,0-3.63-3.78c-2.11,0-31.58.6-65,30.73l-13.29-78.94a253.64,253.64,0,0,0-14.64-48.56,2.76,2.76,0,0,0-.08-.27,2.06,2.06,0,0,0-.17-.33C284,82.81,269.74,62.24,253.19,62h-.34c-27.58,0-47.59,54.65-55.08,88.43,0,0,0,.06,0,.08-.73,3.28-1.34,6.36-1.82,9.17l-14.24,71.29c-29.88-24.35-54.82-26.34-57-26.47a3.36,3.36,0,0,0-2.75,1,3.61,3.61,0,0,0-1.09,2.74c.3,8.3,8.28,192,108.48,219v19.23a3.64,3.64,0,0,0,3.64,3.64h39.9a3.64,3.64,0,0,0,3.64-3.64v-17.8C382.5,407.73,390.8,216.69,391.11,208.22ZM276,298.54c-14.31,5.25-39,1.13-41,.79q-5.88-11.29-12-20.85a3.71,3.71,0,0,0,.61-1.75q.61-8.5,1.36-16.89a190.19,190.19,0,0,0,30.84,2.54,178.88,178.88,0,0,0,30-2.51q.84,9.17,1.52,18.49Q281.49,287.65,276,298.54Zm-4.21,8.65a373.8,373.8,0,0,0-16.13,40.88,369.71,369.71,0,0,0-16.71-40.79,142.74,142.74,0,0,0,17.65,1.19A81.85,81.85,0,0,0,271.74,307.19Zm-65.17-51.31c3.22.88,7,1.79,11.12,2.64-.31,3.58-.62,7.19-.9,10.81Q211.69,262.09,206.57,255.88ZM203.08,161c.25-1.44.52-2.91.81-4.39A125.7,125.7,0,0,0,229.62,164c-2.05,12.7-4.07,26.27-6,40.49a100,100,0,0,1-27.37-9.57Zm13.54-47.3a87.11,87.11,0,0,0,21,5.59c-2.17,11.16-4.47,23.73-6.75,37.41a119.81,119.81,0,0,1-25.37-7.37A248.6,248.6,0,0,1,216.62,113.66Zm35.11,6.6a103.47,103.47,0,0,0,11.25-.62c2.55,11.22,5.26,23.92,7.93,37.78a124.24,124.24,0,0,1-32.89.32c2.31-13.82,4.63-26.5,6.82-37.72C247.05,120.17,249.34,120.26,251.73,120.26Zm-5.45-7.56c2.71-13.54,5.13-24.57,6.93-32.46,2.11,7.81,5,18.75,8.1,32.18A95.91,95.91,0,0,1,246.28,112.7Zm54,36.54a120.38,120.38,0,0,1-22.18,6.92c-2.65-13.76-5.34-26.38-7.88-37.57a111.41,111.41,0,0,0,18.87-5.17A254.43,254.43,0,0,1,300.25,149.24Zm1.75,8.28,6.2,36.8A171.89,171.89,0,0,1,286,202c-2-13.55-4.25-26.48-6.51-38.62a129.46,129.46,0,0,0,22.36-6.9C301.87,156.82,301.94,157.17,302,157.52Zm14.09,83.71c-1.39,1.4-2.78,2.83-4.17,4.33a158.08,158.08,0,0,1-19.76,5.62c-1.46-14.41-3.21-28.43-5.14-41.9a178.81,178.81,0,0,0,22.41-7.61ZM236.81,165.1a131.42,131.42,0,0,0,16.26,1,129.11,129.11,0,0,0,19.22-1.45c2.28,12.26,4.51,25.33,6.56,39a134.76,134.76,0,0,1-48,2C232.73,191.46,234.75,177.84,236.81,165.1Zm11.64,49.4A147.16,147.16,0,0,0,279.92,211c1.91,13.37,3.63,27.29,5.07,41.58a181,181,0,0,1-59.43-.14c1.27-13.46,2.73-26.58,4.33-39.23A132.48,132.48,0,0,0,248.45,214.5Zm45.3,53.86c-.28-3.31-.57-6.59-.87-9.86q5-1,10-2.45Q298.3,261.77,293.75,268.36Zm-7.5-161.65a103.3,103.3,0,0,1-17.71,4.73C264,91.93,260.07,77.55,258,70.16,268.45,73.92,278.32,88.74,286.25,106.71ZM248.12,70.06c-1.76,7.37-5.14,22-9.11,41.92a83.73,83.73,0,0,1-19.55-5C227.6,88.56,237.69,73.65,248.12,70.06ZM194.8,202.42A107.38,107.38,0,0,0,222.71,212c-1.59,12.62-3.06,25.71-4.34,39.14a153.9,153.9,0,0,1-21.19-5.82q-4.62-4.83-9.16-8.91Zm-66.39,9.93c19.69,4,104.79,31.34,139.2,210.29q-3,.33-6,.46h-11C146.5,418.64,130.4,242.65,128.41,212.35ZM269.28,442.77H236.64V428.82a98.24,98.24,0,0,0,13.79,1.55h11.29c2.57-.11,5.09-.32,7.56-.61Zm5.53-21.23a552.5,552.5,0,0,0-15.33-61.69C298.69,232,366.73,214.48,383.61,212.09,381.78,240.34,367.18,403.36,274.81,421.54Z" style="fill:#231f20"/></svg>